<svg width="17" height="16" viewBox="0 0 17 16" fill="none" xmlns="http://www.w3.org/2000/svg">
<path d="M9.2752 15.7831C8.36686 15.7831 7.45853 15.4415 6.76686 14.7498C5.38353 13.3665 5.38353 11.1248 6.76686 9.74147L8.83353 7.68314C9.0752 7.44147 9.47519 7.44147 9.71686 7.68314C9.95853 7.9248 9.95853 8.32481 9.71686 8.56647L7.6502 10.6248C6.75853 11.5165 6.75853 12.9748 7.6502 13.8665C8.54186 14.7581 10.0002 14.7581 10.8919 13.8665L14.1335 10.6248C15.1169 9.64147 15.6585 8.33314 15.6585 6.94147C15.6585 5.5498 15.1169 4.24147 14.1335 3.25814C12.1002 1.2248 8.80019 1.2248 6.76686 3.25814L3.23353 6.79147C2.40853 7.61647 1.9502 8.71647 1.9502 9.88314C1.9502 11.0498 2.40853 12.1498 3.23353 12.9748C3.4752 13.2165 3.4752 13.6165 3.23353 13.8581C2.99186 14.0998 2.59186 14.0998 2.3502 13.8581C1.29186 12.7915 0.700195 11.3831 0.700195 9.88314C0.700195 8.38314 1.28353 6.96647 2.3502 5.90814L5.88353 2.3748C8.4002 -0.141862 12.5002 -0.141862 15.0169 2.3748C16.2335 3.59147 16.9085 5.21647 16.9085 6.94147C16.9085 8.66647 16.2335 10.2915 15.0169 11.5081L11.7752 14.7498C11.0835 15.4415 10.1835 15.7831 9.2752 15.7831Z" fill="#49C5B1"/>
</svg>
