<?xml version="1.0" encoding="utf-8"?>
<!-- Generator: Adobe Illustrator 26.5.0, SVG Export Plug-In . SVG Version: 6.00 Build 0)  -->
<svg version="1.1" id="Слой_1" xmlns="http://www.w3.org/2000/svg"
	xmlns:xlink="http://www.w3.org/1999/xlink" x="0px" y="0px"
	viewBox="0 0 423.74 129.01" style="enable-background:new 0 0 423.74 129.01;" xml:space="preserve">
<style type="text/css">
	.st0{fill:#49C5B1;}
	.st1{fill:#62B5E5;}
</style>
<g>
	<g>
		<g>
			<g>
				<path class="st0" d="M13.19,104.33L0.57,91.71c-0.25-0.25-0.42-0.58-0.51-0.92C0.02,90.64,0,90.49,0,90.32
					c0-0.1,0-0.2,0.02-0.32c0.1-0.61,0.49-1.15,1.05-1.44c9.14-4.6,14.82-13.82,14.82-24.06c0-4.48-1.1-8.8-3.11-12.6
					c-2.56-4.84-6.58-8.88-11.71-11.45c-0.56-0.29-0.95-0.83-1.05-1.44C0,38.91,0,38.79,0,38.69c0-0.51,0.2-1.01,0.56-1.37
					l12.64-12.64c0.36-0.35,0.86-0.57,1.39-0.57c0.51,0,1.02,0.22,1.37,0.57l38.43,38.43c0.37,0.37,0.58,0.86,0.58,1.39
					c0,0.52-0.2,1.01-0.58,1.38l-38.43,38.44C15.19,105.09,13.96,105.09,13.19,104.33z"/>
			</g>
			<path class="st0" d="M126.25,40.45c0.56-0.29,0.95-0.83,1.05-1.44c0.02-0.12,0.02-0.22,0.02-0.32c0-0.17-0.02-0.32-0.07-0.47
				c-0.09-0.34-0.25-0.66-0.51-0.92l-12.62-12.62c-0.76-0.76-2-0.76-2.76,0L72.93,63.12c-0.37,0.37-0.58,0.86-0.58,1.38
				c0,0.53,0.2,1.02,0.58,1.39l38.43,38.43c0.35,0.35,0.86,0.57,1.37,0.57c0.52,0,1.03-0.22,1.39-0.57l12.64-12.64
				c0.36-0.35,0.56-0.86,0.56-1.37c0-0.1,0-0.22-0.02-0.32c-0.1-0.61-0.49-1.15-1.05-1.44c-5.13-2.57-9.15-6.61-11.71-11.45
				c-2.01-3.81-3.11-8.12-3.11-12.6C111.43,54.27,117.12,45.05,126.25,40.45z"/>
		</g>
		<g>
			<g>
				<path class="st1" d="M103.48,115.81l-12.62,12.62c-0.25,0.25-0.58,0.42-0.92,0.51c-0.15,0.05-0.3,0.07-0.47,0.07
					c-0.1,0-0.2,0-0.32-0.02c-0.61-0.1-1.15-0.49-1.44-1.05c-4.6-9.14-13.82-14.82-24.05-14.82c-4.48,0-8.8,1.1-12.6,3.11
					c-4.84,2.56-8.88,6.58-11.45,11.71c-0.29,0.56-0.83,0.95-1.44,1.05c-0.1,0.02-0.22,0.02-0.32,0.02c-0.51,0-1.01-0.2-1.37-0.56
					l-12.64-12.64c-0.35-0.35-0.57-0.86-0.57-1.38c0-0.51,0.22-1.02,0.57-1.37l38.43-38.43c0.37-0.37,0.86-0.57,1.39-0.57
					c0.52,0,1.01,0.2,1.38,0.57l38.44,38.43C104.24,113.82,104.24,115.05,103.48,115.81z"/>
			</g>
			<g>
				<path class="st1" d="M23.84,13.2L36.46,0.57c0.25-0.25,0.58-0.42,0.91-0.51C37.52,0.02,37.68,0,37.84,0c0.1,0,0.2,0,0.32,0.02
					c0.61,0.1,1.15,0.49,1.44,1.05c4.6,9.14,13.82,14.82,24.06,14.82c4.48,0,8.79-1.1,12.6-3.11c4.84-2.56,8.88-6.58,11.45-11.71
					c0.29-0.55,0.83-0.94,1.44-1.05C89.25,0,89.37,0,89.47,0c0.51,0,1.01,0.2,1.37,0.56l12.63,12.64c0.36,0.35,0.57,0.86,0.57,1.38
					c0,0.51-0.22,1.02-0.57,1.37L65.05,54.39c-0.37,0.37-0.86,0.58-1.39,0.58c-0.53,0-1.01-0.21-1.39-0.58L23.84,15.95
					C23.08,15.19,23.08,13.96,23.84,13.2z"/>
			</g>
		</g>
	</g>
	<g>
		<path class="st0" d="M172.98,38.69c-0.13-0.32-0.44-0.52-0.79-0.52h-4.28c-0.34,0-0.65,0.21-0.78,0.52L145.6,90.16
			c-0.11,0.26-0.08,0.56,0.08,0.8c0.16,0.24,0.42,0.38,0.71,0.38h5.44c0.35,0,0.66-0.21,0.79-0.53l6.38-15.57h21.99l6.45,15.57
			c0.13,0.32,0.44,0.52,0.79,0.52h5.36c0.28,0,0.55-0.14,0.71-0.38c0.16-0.24,0.19-0.54,0.08-0.8L172.98,38.69z M160.78,69.55
			l9.24-22.36l9.11,22.36H160.78z"/>
		<path class="st0" d="M237.56,57.71c-1.72-1.8-3.8-3.25-6.18-4.29c-2.4-1.05-5.06-1.58-7.93-1.58c-2.81,0-5.47,0.53-7.89,1.58
			c-2.41,1.04-4.51,2.47-6.25,4.25c-1.73,1.77-3.11,3.87-4.09,6.22c-0.98,2.35-1.47,4.9-1.47,7.56c0,2.71,0.5,5.29,1.47,7.66
			c0.98,2.38,2.36,4.5,4.12,6.32c1.76,1.83,3.87,3.28,6.25,4.32c2.39,1.05,5.06,1.58,7.93,1.58c1.9,0,3.76-0.23,5.51-0.69
			c1.76-0.46,3.39-1.13,4.86-1.98c1.46-0.85,2.77-1.87,3.88-3.02c1.13-1.17,2.01-2.49,2.63-3.93c0.09-0.22,0.09-0.47-0.02-0.68
			c-0.11-0.21-0.3-0.37-0.54-0.43l-4.28-1.12c-0.07-0.02-0.15-0.03-0.22-0.03c-0.33,0-0.65,0.19-0.78,0.5
			c-0.39,0.88-0.97,1.71-1.71,2.45c-0.76,0.76-1.63,1.41-2.57,1.93c-0.95,0.53-2.01,0.95-3.14,1.25c-1.13,0.31-2.27,0.46-3.4,0.46
			c-1.71,0-3.34-0.32-4.85-0.95c-1.51-0.63-2.88-1.53-4.05-2.66c-1.18-1.14-2.16-2.51-2.91-4.08c-0.63-1.31-1.05-2.74-1.25-4.26
			h31.4c0.37,0,0.69-0.23,0.81-0.56c0.08-0.23,0.12-0.55,0.12-1.03v-1.12c0-2.61-0.48-5.12-1.44-7.45
			C240.62,61.6,239.27,59.51,237.56,57.71z M228.38,58.12c1.51,0.61,2.86,1.48,4.01,2.56c1.16,1.1,2.12,2.42,2.87,3.94
			c0.63,1.27,1.04,2.67,1.24,4.18h-25.89c0.19-1.48,0.59-2.88,1.18-4.17c0.7-1.53,1.64-2.86,2.79-3.95
			c1.15-1.09,2.51-1.95,4.04-2.56c1.53-0.61,3.18-0.92,4.9-0.92C225.24,57.2,226.87,57.51,228.38,58.12z"/>
		<path class="st0" d="M272.16,51.93c-0.3-0.06-0.67-0.09-1.1-0.09c-2.87,0-5.59,0.88-8.1,2.62c-1.66,1.15-3.11,2.42-4.32,4.17
			v-5.91c0-0.47-0.38-0.85-0.85-0.85h-4.64c-0.47,0-0.85,0.38-0.85,0.85v37.77c0,0.47,0.38,0.85,0.85,0.85h4.93
			c0.47,0,0.85-0.38,0.85-0.85V67.14c0.96-2.8,2.59-4.83,4.86-6.43c2.31-1.63,5.08-2.51,8.23-2.6c0.46-0.01,0.83-0.39,0.83-0.85
			v-4.5C272.85,52.36,272.56,52.01,272.16,51.93z"/>
		<path class="st0" d="M315.8,57.78c-1.73-1.8-3.82-3.25-6.21-4.32c-2.4-1.07-5.04-1.62-7.86-1.62c-2.82,0-5.45,0.54-7.83,1.62
			c-2.36,1.07-4.43,2.52-6.17,4.32c-1.73,1.8-3.11,3.91-4.08,6.28c-0.98,2.38-1.47,4.93-1.47,7.59c0,2.61,0.48,5.14,1.43,7.52
			c0.95,2.38,2.32,4.49,4.05,6.29c1.74,1.8,3.82,3.24,6.18,4.29c2.37,1.05,5.03,1.58,7.89,1.58c2.86,0,5.53-0.53,7.93-1.58
			c2.39-1.04,4.48-2.49,6.22-4.29c1.73-1.79,3.1-3.91,4.05-6.29c0.95-2.37,1.43-4.9,1.43-7.52c0-2.66-0.5-5.22-1.47-7.59
			C318.91,61.69,317.53,59.58,315.8,57.78z M301.73,85.49c-1.75,0-3.42-0.35-4.97-1.04c-1.55-0.7-2.92-1.68-4.07-2.92
			c-1.16-1.25-2.1-2.73-2.78-4.38c-0.68-1.65-1.03-3.47-1.03-5.41c0-1.94,0.35-3.79,1.03-5.48c0.68-1.7,1.63-3.21,2.81-4.48
			c1.18-1.27,2.55-2.28,4.09-3c1.52-0.71,3.18-1.07,4.92-1.07c1.75,0,3.42,0.36,4.96,1.08c1.56,0.72,2.95,1.72,4.12,2.97
			c1.18,1.25,2.12,2.74,2.81,4.44c0.68,1.7,1.03,3.52,1.03,5.41c0,1.94-0.35,3.77-1.03,5.45c-0.68,1.67-1.63,3.16-2.81,4.41
			c-1.18,1.25-2.57,2.25-4.12,2.97C305.15,85.12,303.48,85.49,301.73,85.49z"/>
		<path class="st0" d="M350.68,61.68l20.54-22.09c0.23-0.25,0.29-0.61,0.16-0.92c-0.14-0.31-0.44-0.51-0.78-0.51h-5.58
			c-0.23,0-0.46,0.1-0.62,0.27l-26.88,28.39V39.08c0-0.47-0.38-0.85-0.85-0.85h-5.07c-0.47,0-0.85,0.38-0.85,0.85v51.4
			c0,0.47,0.38,0.85,0.85,0.85h5.07c0.47,0,0.85-0.38,0.85-0.85V75.02l8.79-9.12L365.42,91c0.16,0.21,0.41,0.33,0.68,0.33h5.58
			c0.32,0,0.62-0.18,0.76-0.47c0.14-0.29,0.11-0.64-0.09-0.89L350.68,61.68z"/>
		<path class="st0" d="M386.64,38.16h-4.93c-0.47,0-0.85,0.38-0.85,0.85v7.25c0,0.47,0.38,0.85,0.85,0.85h4.93
			c0.47,0,0.85-0.38,0.85-0.85v-7.25C387.49,38.54,387.11,38.16,386.64,38.16z"/>
		<path class="st0" d="M386.64,51.86h-4.93c-0.47,0-0.85,0.38-0.85,0.85v37.77c0,0.47,0.38,0.85,0.85,0.85h4.93
			c0.47,0,0.85-0.38,0.85-0.85V52.71C387.49,52.24,387.11,51.86,386.64,51.86z"/>
		<path class="st0" d="M423.7,87.97l-1.3-3.99c-0.08-0.25-0.28-0.45-0.53-0.54c-0.09-0.03-0.18-0.05-0.28-0.05
			c-0.17,0-0.33,0.05-0.47,0.14c-0.14,0.09-0.57,0.33-1.89,0.9c-0.95,0.41-2.08,0.62-3.36,0.62c-0.98,0-1.83-0.27-2.58-0.82
			c-0.69-0.5-1.06-1.3-1.14-2.39V57.48h7.85c0.47,0,0.85-0.38,0.85-0.85v-3.92c0-0.47-0.38-0.85-0.85-0.85h-7.85V39.01
			c0-0.47-0.38-0.85-0.85-0.85h-4.93c-0.47,0-0.85,0.38-0.85,0.85v12.85h-4.37c-0.47,0-0.85,0.38-0.85,0.85v3.92
			c0,0.47,0.38,0.85,0.85,0.85h4.37v25.76c0,1.33,0.25,2.53,0.73,3.55c0.49,1.03,1.15,1.89,1.96,2.57c0.81,0.67,1.76,1.18,2.84,1.5
			c1.04,0.31,2.15,0.47,3.29,0.47c1.06,0,2.1-0.1,3.07-0.31c0.95-0.2,1.81-0.43,2.56-0.68c0.76-0.26,1.41-0.5,1.99-0.75
			c0.57-0.25,1.01-0.45,1.31-0.6C423.65,88.81,423.83,88.37,423.7,87.97z"/>
	</g>
</g>
</svg>