<svg width="30" height="30" viewBox="0 0 30 30" fill="none" xmlns="http://www.w3.org/2000/svg">
<path d="M18.863 4.1626C19.1005 4.1626 19.338 4.2501 19.5255 4.4376C19.888 4.8001 19.888 5.4001 19.5255 5.7626L11.3755 13.9126C10.7755 14.5126 10.7755 15.4876 11.3755 16.0876L19.5255 24.2376C19.888 24.6001 19.888 25.2001 19.5255 25.5626C19.163 25.9251 18.563 25.9251 18.2005 25.5626L10.0505 17.4126C9.41299 16.7751 9.05049 15.9126 9.05049 15.0001C9.05049 14.0876 9.40049 13.2251 10.0505 12.5876L18.2005 4.4376C18.388 4.2626 18.6255 4.1626 18.863 4.1626Z" fill="currentColor"/>
</svg>
