<svg width="20" height="20" viewBox="0 0 20 20" fill="none" xmlns="http://www.w3.org/2000/svg">
<path d="M2.10355 8.96804C2.10355 8.96804 10.0645 5.45574 12.8255 4.21897C13.8839 3.72431 17.4733 2.14124 17.4733 2.14124C17.4733 2.14124 19.1299 1.44871 18.9918 3.13064C18.9458 3.82324 18.5777 6.2472 18.2095 8.8691C17.6573 12.5793 17.0591 16.6358 17.0591 16.6358C17.0591 16.6358 16.9671 17.7736 16.1848 17.9715C15.4025 18.1694 14.114 17.279 13.8839 17.081C13.6998 16.9327 10.4326 14.7065 9.2362 13.6182C8.91406 13.3214 8.54595 12.7278 9.28218 12.0352C10.9388 10.4027 12.9175 8.37444 14.114 7.08824C14.6662 6.49457 15.2184 5.10944 12.9175 6.79137C9.65036 9.21541 6.42916 11.491 6.42916 11.491C6.42916 11.491 5.69287 11.9857 4.31237 11.5404C2.93181 11.0953 1.32121 10.5016 1.32121 10.5016C1.32121 10.5016 0.216863 9.75957 2.10355 8.96804Z" fill="white"/>
</svg>
