<svg width="20" height="20" viewBox="0 0 20 20" fill="none" xmlns="http://www.w3.org/2000/svg">
<path fill-rule="evenodd" clip-rule="evenodd" d="M19.5411 5.74485C19.6801 5.31549 19.5411 5 18.8794 5H16.6914C16.135 5 15.8786 5.27254 15.7395 5.57307C15.7395 5.57307 14.6268 8.08477 13.0505 9.71628C12.5406 10.1886 12.3087 10.3388 12.0306 10.3388C11.8915 10.3388 11.6902 10.1885 11.6902 9.75923V5.74485C11.6902 5.22962 11.5287 5 11.0651 5H7.62678C7.27911 5 7.07003 5.23913 7.07003 5.46576C7.07003 5.95418 7.85811 6.06682 7.93935 7.44075V10.4247C7.93935 11.0789 7.81177 11.1976 7.5336 11.1976C6.79186 11.1976 4.98756 8.67464 3.91744 5.78777C3.70773 5.22666 3.49738 5 2.93819 5H0.750181C0.125035 5 0 5.27254 0 5.57307C0 6.10977 0.741783 8.77174 3.45387 12.2924C5.26191 14.6967 7.80932 16 10.1274 16C11.5182 16 11.6902 15.7105 11.6902 15.2119V13.3947C11.6902 12.8158 11.822 12.7002 12.2624 12.7002C12.5869 12.7002 13.1433 12.8505 14.4414 14.0098C15.9249 15.3837 16.1695 16 17.004 16H19.192C19.8171 16 20.1297 15.7105 19.9494 15.1393C19.752 14.5699 19.0437 13.7439 18.1039 12.7646C17.5939 12.2065 16.8289 11.6054 16.5971 11.3048C16.2726 10.9185 16.3653 10.7467 16.5971 10.4032C16.5971 10.4032 19.2629 6.92553 19.5411 5.74485Z" fill="white"/>
</svg>
